# xmcd
#
# Track frame offsets:
#	150
#	19088
#	29371
#	43194
#	53987
#	64520
#	75647
#	97260
#	115917
#	132190
#	150683
#	172036
#	185493
#	200826
#	216253
#	234176
#	252783
#	273530
#	286827
#	300124
#	314631
#	326678
#	339865
#
# Disc length: 4710 seconds
#
# Revision: 0
# Processed by: cddbd v1.5.2PL0 Copyright (c) Steve Scherf et al.
# Submitted via: audiograbber 1.83.01
#
DISCID=4b126417
DTITLE=Birgitta - First one
DYEAR=2007
DGENRE=Pop
TTITLE0=All or nothing
TTITLE1=Bad moon rising
TTITLE2=Inget stoppar oss nu
TTITLE3=Stand by your man
TTITLE4=Stupid cupid
TTITLE5=Have you ever see the rain
TTITLE6=Anna och mig
TTITLE7=Delerium
TTITLE8=Hello
TTITLE9=I will survive
TTITLE10=Somliga går i trasiga skor
TTITLE11=hitching a ride
TTITLE12=Du e min man
TTITLE13=Aldrig ska jag sluta älska dig
TTITLE14=Stumblin in
TTITLE15=60 medley
TTITLE16=I have a dream
TTITLE17=vem följer med vem
TTITLE18=up around the bend
TTITLE19=Here we are
TTITLE20=You make me feel
TTITLE21=Love growes
TTITLE22=I dag och imorron
EXTD=
EXTT0=
EXTT1=
EXTT2=
EXTT3=
EXTT4=
EXTT5=
EXTT6=
EXTT7=
EXTT8=
EXTT9=
EXTT10=
EXTT11=
EXTT12=
EXTT13=
EXTT14=
EXTT15=
EXTT16=
EXTT17=
EXTT18=
EXTT19=
EXTT20=
EXTT21=
EXTT22=
PLAYORDER=
